<?xml version="1.0" encoding="UTF-8" standalone="no"?>
<svg
   xmlns:dc="http://purl.org/dc/elements/1.1/"
   xmlns:cc="http://creativecommons.org/ns#"
   xmlns:rdf="http://www.w3.org/1999/02/22-rdf-syntax-ns#"
   xmlns:svg="http://www.w3.org/2000/svg"
   xmlns="http://www.w3.org/2000/svg"
   xmlns:sodipodi="http://sodipodi.sourceforge.net/DTD/sodipodi-0.dtd"
   xmlns:inkscape="http://www.inkscape.org/namespaces/inkscape"
   width="38.622078mm"
   height="23.6474mm"
   viewBox="0 0 38.622078 23.6474"
   version="1.1"
   id="svg905"
   inkscape:version="1.0.1 (3bc2e813f5, 2020-09-07)"
   sodipodi:docname="flow_text_logo.svg"
   inkscape:export-filename="C:\Users\shavi\source\repos\flow\static\img\logo.png"
   inkscape:export-xdpi="250.00856"
   inkscape:export-ydpi="250.00856">
  <defs
     id="defs899" />
  <sodipodi:namedview
     id="base"
     pagecolor="#ffffff"
     bordercolor="#666666"
     borderopacity="1.0"
     inkscape:pageopacity="0.0"
     inkscape:pageshadow="2"
     inkscape:zoom="5.6"
     inkscape:cx="59.816639"
     inkscape:cy="45.11871"
     inkscape:document-units="mm"
     inkscape:current-layer="layer1"
     inkscape:document-rotation="0"
     showgrid="false"
     fit-margin-top="0"
     fit-margin-left="0"
     fit-margin-right="0"
     fit-margin-bottom="0"
     inkscape:window-width="1920"
     inkscape:window-height="1001"
     inkscape:window-x="-9"
     inkscape:window-y="-9"
     inkscape:window-maximized="1" />
  <metadata
     id="metadata902">
    <rdf:RDF>
      <cc:Work
         rdf:about="">
        <dc:format>image/svg+xml</dc:format>
        <dc:type
           rdf:resource="http://purl.org/dc/dcmitype/StillImage" />
        <dc:title />
      </cc:Work>
    </rdf:RDF>
  </metadata>
  <g
     inkscape:label="Layer 1"
     inkscape:groupmode="layer"
     id="layer1"
     transform="translate(-70.747259,-61.465971)">
    <g
       id="g904">
      <path
         d="m 83.292057,76.598724 c 0,-0.579497 0.138289,-1.389477 0.414867,-2.429938 0.276579,-1.053632 0.665106,-2.278479 1.165581,-3.674542 0.408282,-1.119484 0.796809,-2.133605 1.16558,-3.042362 0.381942,-0.921928 0.757298,-1.758248 1.126069,-2.508961 -0.237067,-0.06585 -0.487304,-0.11195 -0.750712,-0.13829 -0.250238,-0.03951 -0.434624,-0.05927 -0.553157,-0.05927 -0.513646,0 -0.97461,0.125119 -1.382892,0.375356 -0.395112,0.250237 -0.750713,0.592668 -1.066803,1.027291 -0.316089,0.421453 -0.599253,0.908757 -0.84949,1.461914 -0.250238,0.539987 -0.474135,1.106314 -0.671691,1.698982 0.276579,-0.02634 0.559742,-0.0461 0.849491,-0.05927 0.302919,-0.01317 0.612424,-0.02634 0.928513,-0.03951 -0.158045,0.144875 -0.296334,0.335845 -0.414867,0.572912 -0.118534,0.223897 -0.190971,0.388527 -0.217312,0.49389 h -0.592668 -0.434623 c -0.144875,0 -0.289749,0.0066 -0.434623,0.01976 -0.65852,2.067753 -1.251188,3.872097 -1.778004,5.413034 -0.513646,1.540937 -0.994366,2.857977 -1.442159,3.95112 -0.434623,1.106314 -0.856076,2.008487 -1.264358,2.706518 -0.395112,0.711201 -0.796809,1.264358 -1.205092,1.65947 -0.395112,0.408283 -0.816565,0.691446 -1.264358,0.849491 -0.447794,0.158045 -0.941684,0.237067 -1.48167,0.237067 -0.935099,0 -1.731908,-0.31609 -2.390428,-0.948269 0,-0.09219 0.02634,-0.190971 0.07902,-0.296334 0.05268,-0.105363 0.111947,-0.1778 0.177801,-0.217311 0.184385,0.223897 0.428038,0.395112 0.730957,0.513645 0.302919,0.131704 0.619009,0.197556 0.948269,0.197556 0.34243,0 0.65852,-0.07902 0.948269,-0.237067 0.276578,-0.144875 0.553156,-0.395112 0.829735,-0.750713 0.263408,-0.355601 0.526816,-0.82315 0.790224,-1.402647 0.276578,-0.579498 0.572912,-1.297285 0.889002,-2.153361 0.460964,-1.264358 0.935098,-2.699932 1.422403,-4.306721 0.500475,-1.606789 1.007536,-3.30577 1.521181,-5.096944 -0.500475,0.02634 -0.915343,0.05927 -1.244603,0.09878 -0.32926,0.03951 -0.546571,0.06585 -0.651934,0.07902 -0.05268,-0.05268 -0.09878,-0.125117 -0.13829,-0.217312 -0.02634,-0.09219 -0.03951,-0.1778 -0.03951,-0.256822 0.210727,-0.06585 0.507061,-0.144876 0.889002,-0.237068 0.381942,-0.09219 0.856076,-0.184385 1.422403,-0.276578 0.31609,-0.948269 0.665106,-1.804345 1.047047,-2.568228 0.381942,-0.777053 0.790224,-1.428988 1.224847,-1.955804 0.447794,-0.539987 0.921929,-0.954854 1.422404,-1.244603 0.513645,-0.289749 1.066802,-0.434623 1.65947,-0.434623 0.171215,0 0.381942,0.03293 0.632179,0.09878 0.250237,0.06585 0.50706,0.151461 0.770468,0.256823 0.263408,0.09219 0.520231,0.190971 0.770469,0.296334 0.250237,0.105363 0.460964,0.19097 0.632179,0.256822 0.619009,-1.211677 1.218262,-2.159945 1.79776,-2.844806 0.158045,0.02634 0.349015,0.09219 0.572912,0.197556 0.237067,0.105363 0.467549,0.223897 0.691446,0.355601 0.223897,0.118533 0.421453,0.243652 0.592668,0.375356 0.184385,0.131704 0.302919,0.237067 0.355601,0.31609 -1.027291,1.211677 -1.929464,2.515546 -2.706517,3.911608 -0.777054,1.396063 -1.488256,2.996266 -2.133605,4.800611 -0.553157,1.554107 -0.97461,2.956755 -1.264359,4.207943 -0.289749,1.238017 -0.434623,2.271894 -0.434623,3.101629 v 0.414868 c 0,0.05268 0.0066,0.105362 0.01976,0.158045 -0.184386,-0.02634 -0.342431,-0.07244 -0.474135,-0.13829 -0.131704,-0.06585 -0.225701,-0.139114 -0.300671,-0.205746 -0.128048,-0.113808 -0.302263,-0.341216 -0.489553,-0.585441 -0.08669,-0.113044 -0.217311,-0.301956 -0.296334,-0.631216 -0.07902,-0.34243 -0.118533,-0.724372 -0.118533,-1.145825 z"
         style="font-size:19.7556px;line-height:1.25;font-family:'Kaushan Script';-inkscape-font-specification:'Kaushan Script';letter-spacing:0px;word-spacing:0px;fill:#ff0000;stroke-width:0.264583"
         id="path891"
         sodipodi:nodetypes="scccccscccccccccscccccsscsccsccccccscccsccccsscsccccccsccsscssscss" />
      <path
         d="m 90.226239,78.554529 q -1.12607,-0.118534 -1.79776,-0.98778 -0.67169,-0.869247 -0.67169,-2.212627 0,-0.790224 0.237067,-1.639715 0.237067,-0.849491 0.67169,-1.639715 0.434623,-0.80998 1.027291,-1.521181 0.592668,-0.711202 1.284114,-1.224847 1.086558,-0.80998 2.034827,-0.80998 0.632179,0.335845 1.244603,1.402648 0.09878,0 0.1778,0 0.07902,-0.01976 0.177801,-0.01976 1.047047,0 1.047047,1.857026 0,1.244603 -0.414868,2.370672 -0.395112,1.106314 -1.126069,2.015072 -0.711202,0.908757 -1.718737,1.540936 -0.98778,0.612424 -2.173116,0.869247 z m 1.007535,-6.223014 q -0.335845,0.454379 -0.632179,0.98778 -0.296334,0.533401 -0.513646,1.086558 -0.217311,0.533401 -0.335845,1.047047 -0.118533,0.49389 -0.118533,0.889002 0,0.474134 0.158044,0.908757 0.158045,0.434623 0.355601,0.49389 0.889002,-0.197556 1.619959,-0.730957 0.750713,-0.553157 1.284114,-1.363136 0.553157,-0.80998 0.849491,-1.837271 0.31609,-1.027291 0.31609,-2.192872 0,-0.513645 -0.05927,-0.809979 -0.05927,-0.296334 -0.197556,-0.513646 -0.869246,0.256823 -1.560692,0.829735 -0.671691,0.572913 -1.165581,1.205092 z"
         style="font-size:19.7556px;line-height:1.25;font-family:'Kaushan Script';-inkscape-font-specification:'Kaushan Script';letter-spacing:0px;word-spacing:0px;fill:#ff0000;stroke-width:0.264583"
         id="path893" />
      <path
         d="m 96.785097,77.053103 q 0,-0.395112 0.07902,-1.106313 0.09878,-0.711202 0.237067,-1.540937 0.158045,-0.829735 0.335845,-1.698982 0.197556,-0.869246 0.395112,-1.560692 0.256823,-0.928513 0.790224,-1.422403 0.553157,-0.513646 1.363137,-0.513646 0.434628,0 0.849498,0.138289 0.43462,0.138289 0.51364,0.355601 -0.57291,0.474134 -0.92851,1.185336 -0.33585,0.691446 -0.553162,1.501426 -0.197556,0.790224 -0.31609,1.639714 -0.09878,0.829736 -0.217311,1.560693 0.651935,-0.869247 1.224853,-1.560693 0.59266,-0.711201 1.04704,-1.126069 0.61243,-0.572912 0.82974,-0.948269 0.21731,-0.395112 0.37536,-0.84949 0.11853,-0.355601 0.27657,-0.829736 0.1778,-0.474134 0.57292,-0.869246 0.079,-0.01976 0.33584,-0.01976 0.19756,0 0.41487,0.01976 0.23707,0.01976 0.43462,0.07902 0.19756,0.05927 0.33585,0.13829 0.13829,0.07902 0.15804,0.197556 -0.31609,0.414867 -0.59267,1.303869 -0.27657,0.869247 -0.49389,1.916293 -0.21731,1.047047 -0.39511,2.094094 -0.1778,1.027291 -0.31609,1.738493 0.079,-0.03951 0.3556,-0.31609 0.27658,-0.276578 0.61243,-0.691446 0.3556,-0.414867 0.73095,-0.908757 0.39512,-0.49389 0.69145,-0.968025 0.37536,-0.572912 0.61242,-1.066802 0.25683,-0.513646 0.43463,-1.086558 0.19755,-0.572913 0.3556,-1.264359 0.15804,-0.711201 0.33584,-1.679226 0.11854,-0.158044 0.51365,-0.256822 0.41487,-0.118534 0.75071,-0.118534 0.29634,0 0.43462,0.09878 -0.0988,1.106314 -0.37535,1.97556 -0.25682,0.869246 -0.7112,1.698982 -0.45438,0.809979 -1.12607,1.639714 -0.67169,0.80998 -1.58045,1.778004 -0.37536,0.395112 -0.82974,0.869247 -0.43462,0.474134 -0.86924,0.889002 -0.41487,0.395112 -0.79023,0.67169 -0.3556,0.276579 -0.55315,0.276579 -0.45438,0 -0.75072,-0.355601 -0.29633,-0.355601 -0.29633,-0.908758 0,-0.572912 0.0395,-0.98778 0.0593,-0.434623 0.1778,-0.908757 0.11854,-0.434624 0.1778,-0.730958 0.079,-0.296334 0.11854,-0.513645 0.0593,-0.217312 0.079,-0.375357 0.0198,-0.158044 0.0395,-0.316089 -0.15805,0.07902 -0.41487,0.335845 -0.25682,0.237067 -0.5334,0.572912 -0.27658,0.31609 -0.55316,0.651935 -0.27657,0.335845 -0.45438,0.572913 -0.375354,0.513645 -0.651933,0.908757 -0.276578,0.395112 -0.533401,0.750713 -0.237067,0.355601 -0.474134,0.730957 -0.237068,0.355601 -0.553157,0.770469 -0.632179,-0.197556 -0.908758,-0.592668 -0.256823,-0.395112 -0.256823,-0.968025 z"
         style="font-size:19.7556px;line-height:1.25;font-family:'Kaushan Script';-inkscape-font-specification:'Kaushan Script';letter-spacing:0px;word-spacing:0px;fill:#ff0000;stroke-width:0.264583"
         id="path895" />
    </g>
  </g>
</svg>
